<svg id="wave" style="transform:rotate(0deg); transition: 0.3s" viewBox="0 0 1440 490" version="1.1" xmlns="http://www.w3.org/2000/svg"><defs><linearGradient id="sw-gradient-0" x1="0" x2="0" y1="1" y2="0"><stop stop-color="rgba(151, 245, 170, 1)" offset="0%"></stop><stop stop-color="rgba(0, 191, 99, 1)" offset="100%"></stop></linearGradient></defs><path style="transform:translate(0, 0px); opacity:1" fill="url(#sw-gradient-0)" d="M0,245L80,245C160,245,320,245,480,212.3C640,180,800,114,960,89.8C1120,65,1280,82,1440,147C1600,212,1760,327,1920,359.3C2080,392,2240,343,2400,343C2560,343,2720,392,2880,392C3040,392,3200,343,3360,294C3520,245,3680,196,3840,171.5C4000,147,4160,147,4320,155.2C4480,163,4640,180,4800,155.2C4960,131,5120,65,5280,65.3C5440,65,5600,131,5760,171.5C5920,212,6080,229,6240,236.8C6400,245,6560,245,6720,269.5C6880,294,7040,343,7200,334.8C7360,327,7520,261,7680,228.7C7840,196,8000,196,8160,163.3C8320,131,8480,65,8640,81.7C8800,98,8960,196,9120,236.8C9280,278,9440,261,9600,212.3C9760,163,9920,82,10080,65.3C10240,49,10400,98,10560,106.2C10720,114,10880,82,11040,122.5C11200,163,11360,278,11440,334.8L11520,392L11520,490L11440,490C11360,490,11200,490,11040,490C10880,490,10720,490,10560,490C10400,490,10240,490,10080,490C9920,490,9760,490,9600,490C9440,490,9280,490,9120,490C8960,490,8800,490,8640,490C8480,490,8320,490,8160,490C8000,490,7840,490,7680,490C7520,490,7360,490,7200,490C7040,490,6880,490,6720,490C6560,490,6400,490,6240,490C6080,490,5920,490,5760,490C5600,490,5440,490,5280,490C5120,490,4960,490,4800,490C4640,490,4480,490,4320,490C4160,490,4000,490,3840,490C3680,490,3520,490,3360,490C3200,490,3040,490,2880,490C2720,490,2560,490,2400,490C2240,490,2080,490,1920,490C1760,490,1600,490,1440,490C1280,490,1120,490,960,490C800,490,640,490,480,490C320,490,160,490,80,490L0,490Z"></path></svg>
