<svg id="visual" viewBox="0 0 960 540" width="960" height="540" xmlns="http://www.w3.org/2000/svg" xmlns:xlink="http://www.w3.org/1999/xlink" version="1.1"><path d="M0 114L87 104L175 55L262 147L349 114L436 60L524 66L611 50L698 77L785 77L873 71L960 50L960 0L873 0L785 0L698 0L611 0L524 0L436 0L349 0L262 0L175 0L87 0L0 0Z" fill="#00cc8e"></path><path d="M0 190L87 179L175 104L262 239L349 185L436 141L524 152L611 82L698 141L785 152L873 125L960 120L960 48L873 69L785 75L698 75L611 48L524 64L436 58L349 112L262 145L175 53L87 102L0 112Z" fill="#00b98a"></path><path d="M0 282L87 352L175 341L262 379L349 303L436 266L524 314L611 325L698 325L785 309L873 228L960 314L960 118L873 123L785 150L698 139L611 80L524 150L436 139L349 183L262 237L175 102L87 177L0 188Z" fill="#00a784"></path><path d="M0 390L87 433L175 384L262 417L349 352L436 357L524 379L611 422L698 379L785 411L873 293L960 411L960 312L873 226L785 307L698 323L611 323L524 312L436 264L349 301L262 377L175 339L87 350L0 280Z" fill="#00957c"></path><path d="M0 541L87 541L175 541L262 541L349 541L436 541L524 541L611 541L698 541L785 541L873 541L960 541L960 409L873 291L785 409L698 377L611 420L524 377L436 355L349 350L262 415L175 382L87 431L0 388Z" fill="#038373"></path></svg>