<svg id="visual" viewBox="0 0 900 600" width="900" height="600" xmlns="http://www.w3.org/2000/svg" xmlns:xlink="http://www.w3.org/1999/xlink" version="1.1"><path d="M0 353L21.5 363.2C43 373.3 86 393.7 128.8 408.7C171.7 423.7 214.3 433.3 257.2 427.7C300 422 343 401 385.8 390C428.7 379 471.3 378 514.2 373.3C557 368.7 600 360.3 642.8 360.2C685.7 360 728.3 368 771.2 368.5C814 369 857 362 878.5 358.5L900 355L900 601L878.5 601C857 601 814 601 771.2 601C728.3 601 685.7 601 642.8 601C600 601 557 601 514.2 601C471.3 601 428.7 601 385.8 601C343 601 300 601 257.2 601C214.3 601 171.7 601 128.8 601C86 601 43 601 21.5 601L0 601Z" fill="#93c9ff"></path><path d="M0 419L21.5 415.5C43 412 86 405 128.8 408.7C171.7 412.3 214.3 426.7 257.2 427.3C300 428 343 415 385.8 412.8C428.7 410.7 471.3 419.3 514.2 428.2C557 437 600 446 642.8 448.8C685.7 451.7 728.3 448.3 771.2 447.7C814 447 857 449 878.5 450L900 451L900 601L878.5 601C857 601 814 601 771.2 601C728.3 601 685.7 601 642.8 601C600 601 557 601 514.2 601C471.3 601 428.7 601 385.8 601C343 601 300 601 257.2 601C214.3 601 171.7 601 128.8 601C86 601 43 601 21.5 601L0 601Z" fill="#a5d2ff"></path><path d="M0 501L21.5 493.8C43 486.7 86 472.3 128.8 472.8C171.7 473.3 214.3 488.7 257.2 491.3C300 494 343 484 385.8 477.2C428.7 470.3 471.3 466.7 514.2 467.5C557 468.3 600 473.7 642.8 475.3C685.7 477 728.3 475 771.2 479.3C814 483.7 857 494.3 878.5 499.7L900 505L900 601L878.5 601C857 601 814 601 771.2 601C728.3 601 685.7 601 642.8 601C600 601 557 601 514.2 601C471.3 601 428.7 601 385.8 601C343 601 300 601 257.2 601C214.3 601 171.7 601 128.8 601C86 601 43 601 21.5 601L0 601Z" fill="#b7dafe"></path><path d="M0 528L21.5 524.8C43 521.7 86 515.3 128.8 510.8C171.7 506.3 214.3 503.7 257.2 504.8C300 506 343 511 385.8 513C428.7 515 471.3 514 514.2 508.7C557 503.3 600 493.7 642.8 498.2C685.7 502.7 728.3 521.3 771.2 526.5C814 531.7 857 523.3 878.5 519.2L900 515L900 601L878.5 601C857 601 814 601 771.2 601C728.3 601 685.7 601 642.8 601C600 601 557 601 514.2 601C471.3 601 428.7 601 385.8 601C343 601 300 601 257.2 601C214.3 601 171.7 601 128.8 601C86 601 43 601 21.5 601L0 601Z" fill="#c8e3fd"></path><path d="M0 567L21.5 561C43 555 86 543 128.8 537.3C171.7 531.7 214.3 532.3 257.2 531.2C300 530 343 527 385.8 532.8C428.7 538.7 471.3 553.3 514.2 556.2C557 559 600 550 642.8 547.8C685.7 545.7 728.3 550.3 771.2 549.2C814 548 857 541 878.5 537.5L900 534L900 601L878.5 601C857 601 814 601 771.2 601C728.3 601 685.7 601 642.8 601C600 601 557 601 514.2 601C471.3 601 428.7 601 385.8 601C343 601 300 601 257.2 601C214.3 601 171.7 601 128.8 601C86 601 43 601 21.5 601L0 601Z" fill="#d9ebfd"></path></svg>
