<svg id="visual" viewBox="0 0 960 540" width="960" height="540" xmlns="http://www.w3.org/2000/svg" xmlns:xlink="http://www.w3.org/1999/xlink" version="1.1"><path d="M0 315L22.8 322.3C45.7 329.7 91.3 344.3 137 349.8C182.7 355.3 228.3 351.7 274 347.3C319.7 343 365.3 338 411.2 338C457 338 503 343 548.8 344.5C594.7 346 640.3 344 686 349C731.7 354 777.3 366 823 370.5C868.7 375 914.3 372 937.2 370.5L960 369L960 541L937.2 541C914.3 541 868.7 541 823 541C777.3 541 731.7 541 686 541C640.3 541 594.7 541 548.8 541C503 541 457 541 411.2 541C365.3 541 319.7 541 274 541C228.3 541 182.7 541 137 541C91.3 541 45.7 541 22.8 541L0 541Z" fill="#93c9ff"></path><path d="M0 396L22.8 390.3C45.7 384.7 91.3 373.3 137 378.8C182.7 384.3 228.3 406.7 274 409.8C319.7 413 365.3 397 411.2 390.7C457 384.3 503 387.7 548.8 383.8C594.7 380 640.3 369 686 369.7C731.7 370.3 777.3 382.7 823 391C868.7 399.3 914.3 403.7 937.2 405.8L960 408L960 541L937.2 541C914.3 541 868.7 541 823 541C777.3 541 731.7 541 686 541C640.3 541 594.7 541 548.8 541C503 541 457 541 411.2 541C365.3 541 319.7 541 274 541C228.3 541 182.7 541 137 541C91.3 541 45.7 541 22.8 541L0 541Z" fill="#a1d0ff"></path><path d="M0 443L22.8 440.3C45.7 437.7 91.3 432.3 137 425.7C182.7 419 228.3 411 274 413.2C319.7 415.3 365.3 427.7 411.2 429C457 430.3 503 420.7 548.8 419.2C594.7 417.7 640.3 424.3 686 423.3C731.7 422.3 777.3 413.7 823 413.8C868.7 414 914.3 423 937.2 427.5L960 432L960 541L937.2 541C914.3 541 868.7 541 823 541C777.3 541 731.7 541 686 541C640.3 541 594.7 541 548.8 541C503 541 457 541 411.2 541C365.3 541 319.7 541 274 541C228.3 541 182.7 541 137 541C91.3 541 45.7 541 22.8 541L0 541Z" fill="#aed6fe"></path><path d="M0 466L22.8 467C45.7 468 91.3 470 137 471.5C182.7 473 228.3 474 274 475.7C319.7 477.3 365.3 479.7 411.2 477.7C457 475.7 503 469.3 548.8 466.2C594.7 463 640.3 463 686 459.7C731.7 456.3 777.3 449.7 823 449.5C868.7 449.3 914.3 455.7 937.2 458.8L960 462L960 541L937.2 541C914.3 541 868.7 541 823 541C777.3 541 731.7 541 686 541C640.3 541 594.7 541 548.8 541C503 541 457 541 411.2 541C365.3 541 319.7 541 274 541C228.3 541 182.7 541 137 541C91.3 541 45.7 541 22.8 541L0 541Z" fill="#bbddfd"></path><path d="M0 513L22.8 509.3C45.7 505.7 91.3 498.3 137 496.5C182.7 494.7 228.3 498.3 274 497.2C319.7 496 365.3 490 411.2 490C457 490 503 496 548.8 496.7C594.7 497.3 640.3 492.7 686 490.7C731.7 488.7 777.3 489.3 823 493.2C868.7 497 914.3 504 937.2 507.5L960 511L960 541L937.2 541C914.3 541 868.7 541 823 541C777.3 541 731.7 541 686 541C640.3 541 594.7 541 548.8 541C503 541 457 541 411.2 541C365.3 541 319.7 541 274 541C228.3 541 182.7 541 137 541C91.3 541 45.7 541 22.8 541L0 541Z" fill="#c8e3fd"></path></svg>